<?xml version="1.0" encoding="UTF-8" standalone="no"?>
<!DOCTYPE svg PUBLIC "-//W3C//DTD SVG 1.1//EN" "http://www.w3.org/Graphics/SVG/1.1/DTD/svg11.dtd">
<svg width="100%" height="100%" viewBox="0 0 800 800" version="1.1" xmlns="http://www.w3.org/2000/svg" xmlns:xlink="http://www.w3.org/1999/xlink" xml:space="preserve" xmlns:serif="http://www.serif.com/" style="fill-rule:evenodd;clip-rule:evenodd;stroke-linejoin:round;stroke-miterlimit:2;">
    <path d="M800.797,400C800.797,187.487 633.873,13.2 423.985,0.763C419.66,0.288 415.323,-0.025 410.923,-0.025C409.623,-0.025 408.323,0.112 407.023,0.15C404.685,0.112 402.36,-0.025 399.998,-0.025C178.998,-0.025 -0.802,179.425 -0.802,400C-0.802,620.575 178.998,800.025 399.998,800.025C402.36,800.025 404.685,799.888 407.035,799.838C408.335,799.888 409.635,800.025 410.935,800.025C415.335,800.025 419.673,799.713 423.998,799.237C633.873,786.799 800.798,612.537 800.797,400ZM726.226,528.775C712.451,524.775 677.851,516.087 616.801,508.937C621.851,474.412 624.613,437.925 624.613,400C624.613,370.112 622.888,341.138 619.701,313.275C697.051,304.037 730.938,292.4 733.213,291.599L723.901,265.362C741.276,306.837 750.901,352.312 750.901,399.999C750.901,445.462 742.088,488.875 726.227,528.775L726.226,528.775ZM223.038,400.001C223.038,372.026 224.889,344.712 228.276,318.438C268.813,321.625 317.288,323.975 374.263,324.525L374.263,498.012C318.8,498.55 271.4,500.8 231.538,503.851C226.037,470.887 223.038,435.976 223.038,400.001ZM424.176,53.299C485.476,71.062 537.963,156.186 561.476,269.011C523.688,272.023 478.176,274.224 424.176,274.738L424.176,53.299ZM374.265,53.911L374.265,274.711C320.852,274.173 275.14,271.998 236.716,269.061C260.703,157.648 313.616,73.161 374.265,53.911ZM374.265,547.835L374.266,746.072C317.703,728.122 267.866,653.435 241.953,553.085C279.266,550.348 323.278,548.348 374.265,547.835ZM424.177,746.697L424.177,547.822C475.702,548.309 519.539,550.384 556.377,553.234C530.902,654.897 481.377,730.122 424.177,746.697ZM424.177,498.009L424.177,324.547C481.452,324.009 529.639,321.597 569.639,318.297C573.02,345.403 574.715,372.693 574.714,400.009C574.714,436.047 571.814,470.997 566.489,504.009C527.102,500.822 479.927,498.534 424.177,498.009ZM714.691,245.259C707.141,247.609 675.579,256.572 612.329,264.034C598.229,189.072 572.741,124.997 539.579,78.747C615.779,111.859 677.966,171.172 714.691,245.259L714.691,245.259ZM280.328,70.773C239.541,117.61 206.241,184.961 188.066,264.611C131.441,258.473 97.502,251.26 83.916,247.985C123.541,166.235 194.103,102.085 280.328,70.773ZM65.341,294.673C74.966,297.286 111.367,306.346 179.055,313.834C175.059,342.385 173.054,371.18 173.055,400.009C173.055,437.723 176.467,474.01 182.617,508.359C124.492,514.635 88.742,522.148 72.705,526.023C57.517,486.885 49.105,444.423 49.105,399.998C49.105,363.31 54.817,327.923 65.341,294.673ZM94.605,572.147C112.78,568.284 145.317,562.409 193.505,557.359C212.48,627.447 243.342,686.747 280.33,729.209C201.33,700.522 135.567,644.247 94.605,572.147ZM539.58,721.234C569.442,679.622 593.08,623.559 607.78,558.109C657.317,563.796 688.417,570.446 704.105,574.409C666.592,639.309 608.905,691.122 539.58,721.234Z" style="fill:white;fill-rule:nonzero;"/>
</svg>
